<svg xmlns="http://www.w3.org/2000/svg" viewBox="0 0 1200 630" width="1200" height="630">
  <rect width="1200" height="630" fill="#1a2a6e"/>

  <!-- Dot grid — bottom right -->
  <g fill="#ffffff" opacity="0.1">
    <circle cx="800" cy="400" r="2"/><circle cx="840" cy="400" r="2"/><circle cx="880" cy="400" r="2"/><circle cx="920" cy="400" r="2"/><circle cx="960" cy="400" r="2"/><circle cx="1000" cy="400" r="2"/><circle cx="1040" cy="400" r="2"/><circle cx="1080" cy="400" r="2"/><circle cx="1120" cy="400" r="2"/>
    <circle cx="800" cy="440" r="2"/><circle cx="840" cy="440" r="2"/><circle cx="880" cy="440" r="2"/><circle cx="920" cy="440" r="2"/><circle cx="960" cy="440" r="2"/><circle cx="1000" cy="440" r="2"/><circle cx="1040" cy="440" r="2"/><circle cx="1080" cy="440" r="2"/><circle cx="1120" cy="440" r="2"/>
    <circle cx="800" cy="480" r="2"/><circle cx="840" cy="480" r="2"/><circle cx="880" cy="480" r="2"/><circle cx="920" cy="480" r="2"/><circle cx="960" cy="480" r="2"/><circle cx="1000" cy="480" r="2"/><circle cx="1040" cy="480" r="2"/><circle cx="1080" cy="480" r="2"/><circle cx="1120" cy="480" r="2"/>
    <circle cx="800" cy="520" r="2"/><circle cx="840" cy="520" r="2"/><circle cx="880" cy="520" r="2"/><circle cx="920" cy="520" r="2"/><circle cx="960" cy="520" r="2"/><circle cx="1000" cy="520" r="2"/><circle cx="1040" cy="520" r="2"/><circle cx="1080" cy="520" r="2"/><circle cx="1120" cy="520" r="2"/>
    <circle cx="800" cy="560" r="2"/><circle cx="840" cy="560" r="2"/><circle cx="880" cy="560" r="2"/><circle cx="920" cy="560" r="2"/><circle cx="960" cy="560" r="2"/><circle cx="1000" cy="560" r="2"/><circle cx="1040" cy="560" r="2"/><circle cx="1080" cy="560" r="2"/><circle cx="1120" cy="560" r="2"/>
  </g>

  <!-- Brand -->
  <text x="80" y="80" font-family="-apple-system, 'Helvetica Neue', Arial, sans-serif" font-size="14" font-weight="400" fill="#ffffff" letter-spacing="0.25em" opacity="0.7">ENTRELAMPISTAS</text>

  <!-- Title -->
  <text x="80" y="290" font-family="-apple-system, 'Helvetica Neue', Arial, sans-serif" font-size="72" font-weight="700" fill="#ffffff">El mapa de</text>
  <text x="80" y="370" font-family="-apple-system, 'Helvetica Neue', Arial, sans-serif" font-size="72" font-weight="700" fill="#ffffff">tu mente</text>

  <!-- Subtitle -->
  <text x="80" y="430" font-family="-apple-system, 'Helvetica Neue', Arial, sans-serif" font-size="24" font-weight="400" fill="#ffffff" opacity="0.6">Sesgos cognitivos y decisiones</text>
</svg>
